<svg xmlns="http://www.w3.org/2000/svg" width="45" height="48" viewBox="0 0 45 48"><g><g><g><path fill="#368b4c" d="M24.317 14.007c-.527.174-1.095.325-1.707.451 0 0-.337-.814-.55-2.075-.474-2.802-.33-7.815 5.516-11.013.349-.191.719-.376 1.11-.553a1.309 1.309 0 0 1 1.817.922c.075.357.149.766.21 1.215.449 3.364.096 8.917-6.396 11.053z"/></g><g><path fill="#3fa45a" d="M22.06 12.384c-.474-2.802-.33-7.816 5.516-11.014l.04.27c.427 3.213.125 8.421-5.557 10.744z"/></g><g><path fill="#368b4c" d="M15.974 19.213C11.25 27.256 4.249 24.283 1.39 22.58a1.309 1.309 0 0 1-.288-2.017c.48-.511.96-.962 1.438-1.357 5.775-4.784 11.268-1.578 12.927-.387.328.237.507.394.507.394z"/></g><g><path fill="#3fa45a" d="M15.467 18.82c-4.52 4.594-10.1 2.168-12.575.693a1.284 1.284 0 0 1-.352-.307c5.775-4.784 11.268-1.578 12.927-.387z"/></g><g><path fill="#4cba68" d="M19.51 17.399c-7.72 5.237-12.767-.454-14.619-3.22a1.309 1.309 0 0 1 .608-1.946 15.85 15.85 0 0 1 1.698-.56c6.42-1.716 10.007 2.076 11.49 4.284.561.833.822 1.442.822 1.442z"/></g><g><path fill="#64c37d" d="M18.69 15.957c-5.78 2.198-9.706-1.798-11.49-4.284"/></g><g><path fill="#4cba68" d="M19.794 17.231c7.428-5.642 3.647-12.243 1.616-14.88a1.309 1.309 0 0 0-2.037-.046c-.406.483-.762.96-1.074 1.43-3.676 5.536-1.228 10.146.391 12.257.611.798 1.104 1.24 1.104 1.24z"/></g><g><path fill="#64c37d" d="M18.69 15.987c3.929-4.776 1.396-9.773-.39-12.257"/></g><g><path fill="#f34e49" d="M41.707 42.983a6.585 6.585 0 0 1-6.713 4.293c-10.208-.83-19.427-7.348-19.427-7.348-7.347-4.876-8.26-15.462-1.736-20.131l.222-.159 4.763-3.41 4.985-3.567c6.523-4.668 16.267-.395 18.495 8.137 2.63 10.07 1.027 17.764-.589 22.185z"/></g><g><path fill="#ff0c38" d="M41.701 42.983c-.102.28-.221.548-.358.807a6.574 6.574 0 0 1-3.61.74c-10.207-.83-19.426-7.348-19.426-7.348-6.195-4.111-7.816-12.283-4.26-17.544l4.763-3.41 4.985-3.567c6.523-4.668 16.267-.395 18.495 8.137 2.63 10.07 1.027 17.764-.589 22.185z"/></g><g transform="rotate(144.409 15.5 31)"><path d="M15.606 32.616c.467 0 .846-.682.846-1.523 0-.841-.38-1.523-.846-1.523-.467 0-.846.682-.846 1.523 0 .841.379 1.523.846 1.523z"/></g><g transform="rotate(-35.591 18.5 23)"><path d="M18.706 24.846c.467 0 .846-.682.846-1.523 0-.841-.38-1.523-.846-1.523-.467 0-.846.682-.846 1.523 0 .841.379 1.523.846 1.523z"/></g><g transform="rotate(144.409 26.5 27.5)"><path d="M26.316 29.836c.467 0 .846-.682.846-1.523 0-.841-.38-1.523-.846-1.523-.467 0-.846.682-.846 1.523 0 .841.379 1.523.846 1.523z"/></g><g transform="rotate(-35.591 37 17)"><path d="M37.156 18.296c.467 0 .846-.682.846-1.523 0-.841-.38-1.523-.846-1.523-.467 0-.846.682-.846 1.523 0 .841.379 1.523.846 1.523z"/></g><g transform="rotate(-125.591 35.5 26)"><path d="M34.863 27.032c.841 0 1.523-.38 1.523-.846 0-.467-.682-.846-1.523-.846-.841 0-1.523.379-1.523.846 0 .467.682.846 1.523.846z"/></g><g transform="rotate(144.409 39.5 34)"><path d="M39.626 35.646c.467 0 .846-.682.846-1.523 0-.841-.38-1.523-.846-1.523-.467 0-.846.682-.846 1.523 0 .841.379 1.523.846 1.523z"/></g><g transform="rotate(-35.591 29.5 38)"><path d="M29.186 39.876c.467 0 .846-.682.846-1.523 0-.841-.38-1.523-.846-1.523-.467 0-.846.682-.846 1.523 0 .841.379 1.523.846 1.523z"/></g><g transform="rotate(-35.591 36.5 42)"><path d="M36.516 43.806c.467 0 .846-.682.846-1.523 0-.841-.38-1.523-.846-1.523-.467 0-.846.682-.846 1.523 0 .841.379 1.523.846 1.523z"/></g><g transform="rotate(-35.591 19.5 38.5)"><path d="M19.546 39.966c.467 0 .846-.682.846-1.523 0-.841-.38-1.523-.846-1.523-.467 0-.846.682-.846 1.523 0 .841.379 1.523.846 1.523z"/></g><g transform="rotate(-35.591 28 18)"><path d="M28.096 19.496c.467 0 .846-.682.846-1.523 0-.841-.38-1.523-.846-1.523-.467 0-.846.682-.846 1.523 0 .841.379 1.523.846 1.523z"/></g><g><path d="M43.64 33.352a.703.703 0 0 0-.754.65c-.23 3.084-.85 6.024-1.842 8.738a5.89 5.89 0 0 1-5.995 3.832c-9.89-.804-18.988-7.156-19.078-7.22a13.08 13.08 0 0 1-5.15-6.664.704.704 0 0 0-1.334.452 14.49 14.49 0 0 0 5.68 7.368c.182.128 2.459 1.712 5.976 3.415 3.322 1.607 8.41 3.615 13.791 4.053a7.302 7.302 0 0 0 7.431-4.752c1.038-2.836 1.685-5.904 1.925-9.117a.705.705 0 0 0-.65-.755z"/></g><g><path d="M8.912 17.366A11.391 11.391 0 0 1 7.383 16.1a14.882 14.882 0 0 1-1.911-2.317.602.602 0 0 1-.073-.519.59.59 0 0 1 .352-.38c1.619-.633 3.147-.95 4.577-.95 2.723 0 5.046 1.17 6.84 3.206l.535.748c.042.06.083.12.124.176l-3.822 2.736c-1.723.144-3.437-.302-5.093-1.435zm.703 13.506a.704.704 0 0 0 .617-.781 12.144 12.144 0 0 1-.082-1.402c0-1.588.33-3.08.854-4.28 1.232-2.874 3.405-4.136 3.468-4.21l.047-.033.001-.001-.001.001.004-.003.003-.002h.001l9.679-6.929c6.125-4.385 15.303-.306 17.405 7.743.906 3.468 1.368 6.922 1.373 10.267a.705.705 0 0 0 1.408-.002c-.006-3.464-.483-7.038-1.419-10.621-1.554-5.952-6.802-10.32-12.603-10.573.597-1.128.908-2.296 1.054-3.363a.704.704 0 1 0-1.395-.192c-.19 1.385-.632 2.584-1.32 3.6-1.414.14-2.77.542-4.012 1.19.051-.255.092-.512.12-.772a.703.703 0 1 0-1.398-.157 7.33 7.33 0 0 1-.57 2.12l-3.825 2.737c-.23-.319-.413-.54-.479-.624-.757-1.237-1.485-2.95-1.485-4.961 0-2.32.96-4.632 2.852-6.873a.59.59 0 0 1 .457-.211c.19 0 .367.086.483.237a14.72 14.72 0 0 1 1.575 2.55c.373.775.67 1.598.85 2.45a.705.705 0 0 0 1.379-.293 11.89 11.89 0 0 0-.638-2.043c.96-1.464 2.509-2.871 4.95-3.98a.59.59 0 0 1 .245-.053.61.61 0 0 1 .593.481c.137.648.233 1.302.284 1.943a.703.703 0 1 0 1.404-.111 16.822 16.822 0 0 0-.31-2.124A2.024 2.024 0 0 0 29.214 0c-.286 0-.565.06-.827.18-2.355 1.067-3.974 2.391-5.07 3.799a16.58 16.58 0 0 0-1.346-2.057 2.002 2.002 0 0 0-1.602-.79c-.592 0-1.152.258-1.533.71-2.113 2.502-3.184 5.12-3.184 7.781 0 .364.022.718.06 1.062L12.61 6.353a.705.705 0 0 0-.983-.164.705.705 0 0 0-.162.983l3.04 4.248c-2.221-.999-5.29-1.402-9.268.155-.568.223-1 .685-1.183 1.268a2.005 2.005 0 0 0 .248 1.724c.37.554.878 1.238 1.516 1.938-1.85.639-3.601 1.833-5.235 3.574-.35.372-.543.86-.543 1.371a2 2 0 0 0 .983 1.733c.622.37 1.267.701 1.915.981a.704.704 0 0 0 .559-1.293 15.3 15.3 0 0 1-1.753-.898.6.6 0 0 1-.296-.523c0-.107.027-.265.162-.407 1.675-1.785 3.471-2.927 5.357-3.411 1.53 1.338 3.313 2.279 5.305 2.533a10.99 10.99 0 0 0-2.446 3.42c-1.242.338-2.525.331-3.793.085a.705.705 0 0 0-.267 1.383c.693.134 1.381.203 2.044.203h.001c.49 0 .966-.036 1.43-.106a12.527 12.527 0 0 0-.5 3.539c0 .517.032 1.044.093 1.565a.704.704 0 0 0 .78.618z"/></g><g><path d="M14.534 20.163"/></g><g><path d="M14.524 20.173c-.001 0-.002 0 0 0"/></g><g><path d="M14.523 20.173z"/></g></g></g></svg>